<svg width="720" height="960" viewBox="0 0 720 960" fill="none" xmlns="http://www.w3.org/2000/svg">
  <rect width="720" height="960" fill="#071126"/>
  <path d="M0 0h720v960H0z" fill="url(#bg)"/>
  <g opacity=".18" stroke="#9bb7ff" stroke-width="1">
    <path d="M0 40h720M0 80h720M0 120h720M0 160h720M0 200h720M0 240h720M0 280h720M0 320h720M0 360h720M0 400h720M0 440h720M0 480h720M0 520h720M0 560h720M0 600h720M0 640h720M0 680h720M0 720h720M0 760h720M0 800h720M0 840h720M0 880h720M0 920h720"/>
    <path d="M40 0v960M80 0v960M120 0v960M160 0v960M200 0v960M240 0v960M280 0v960M320 0v960M360 0v960M400 0v960M440 0v960M480 0v960M520 0v960M560 0v960M600 0v960M640 0v960M680 0v960"/>
  </g>
  <g transform="translate(190 34)">
    <circle cx="36" cy="36" r="29" fill="url(#ball)"/>
    <circle cx="36" cy="36" r="12" fill="#e8f4ff" stroke="#1d2546" stroke-width="5"/>
    <text x="78" y="52" fill="#eaf4ff" font-family="Outfit, Arial, sans-serif" font-size="54" font-weight="800">Poké<tspan fill="#9de2ff">Dex</tspan></text>
  </g>
  <text x="360" y="130" fill="#bac7e8" text-anchor="middle" font-family="Outfit, Arial, sans-serif" font-size="17">Busca, compara y descubre cada criatura con una ficha visual.</text>
  <g transform="translate(78 184)">
    <text x="0" y="0" fill="#eaf4ff" font-family="Outfit, Arial, sans-serif" font-size="13" font-weight="800" letter-spacing="1.5">ENCUENTRA TU POKÉMON</text>
    <rect y="12" width="560" height="56" rx="18" fill="rgba(255,255,255,.12)" stroke="#526181"/>
    <text x="48" y="48" fill="#9faccc" font-family="Outfit, Arial, sans-serif" font-size="14">Ej: pikachu, charizard, lucario...</text>
    <rect x="450" y="20" width="102" height="40" rx="15" fill="#ff3758"/>
    <text x="501" y="46" fill="white" text-anchor="middle" font-family="Outfit, Arial, sans-serif" font-size="13" font-weight="800">BUSCAR</text>
  </g>
  <g transform="translate(22 260)">
    <rect width="676" height="676" rx="24" fill="rgba(15,21,45,.86)" stroke="#33486d"/>
    <text x="26" y="62" fill="#eaf4ff" font-family="Outfit, Arial, sans-serif" font-size="44" font-weight="800">Pika<tspan fill="#9de2ff">chu</tspan></text>
    <rect x="594" y="25" width="56" height="34" rx="12" fill="#ffe188"/>
    <text x="622" y="47" fill="#08101f" text-anchor="middle" font-family="Outfit, Arial, sans-serif" font-size="13" font-weight="800">#025</text>
    <rect x="26" y="90" width="272" height="500" rx="18" fill="url(#panel)" stroke="#59617d"/>
    <ellipse cx="162" cy="395" rx="102" ry="96" fill="url(#glow)"/>
    <g transform="translate(82 285)">
      <ellipse cx="83" cy="120" rx="72" ry="45" fill="#f4cf57"/>
      <path d="M78 28l20 84 94-54-44-8 40-48-78 30-28-32z" fill="#ffe582"/>
      <path d="M39 42l-13 88 39-58 10-70z" fill="#221b1f"/>
      <circle cx="61" cy="96" r="15" fill="#1d1722"/>
      <circle cx="116" cy="94" r="15" fill="#1d1722"/>
      <circle cx="41" cy="126" r="16" fill="#f16d60"/>
      <circle cx="134" cy="124" r="16" fill="#f16d60"/>
      <path d="M76 128c13 12 33 12 45 0" stroke="#6a3b30" stroke-width="6" stroke-linecap="round"/>
    </g>
    <g transform="translate(322 90)">
      <rect width="68" height="32" rx="15" fill="#35324f" stroke="#7e669b"/>
      <text x="34" y="21" fill="white" text-anchor="middle" font-family="Outfit, Arial, sans-serif" font-size="12" font-weight="800">Electric</text>
      <g transform="translate(0 48)">
        <rect width="104" height="78" rx="13" fill="rgba(255,255,255,.11)" stroke="#3e4d70"/>
        <rect x="114" width="104" height="78" rx="13" fill="rgba(255,255,255,.11)" stroke="#3e4d70"/>
        <rect x="228" width="104" height="78" rx="13" fill="rgba(255,255,255,.11)" stroke="#3e4d70"/>
        <text x="52" y="45" fill="white" text-anchor="middle" font-family="Outfit, Arial, sans-serif" font-size="16" font-weight="800">6.0 kg</text>
        <text x="166" y="45" fill="white" text-anchor="middle" font-family="Outfit, Arial, sans-serif" font-size="16" font-weight="800">0.4 m</text>
        <text x="280" y="45" fill="white" text-anchor="middle" font-family="Outfit, Arial, sans-serif" font-size="16" font-weight="800">112</text>
      </g>
      <rect y="148" width="332" height="58" rx="14" fill="rgba(255,255,255,.08)" stroke="#ffd55f"/>
      <text x="16" y="174" fill="#ffe188" font-family="Outfit, Arial, sans-serif" font-size="12" font-weight="800">HABILIDAD PRINCIPAL</text>
      <text x="16" y="194" fill="white" font-family="Outfit, Arial, sans-serif" font-size="17" font-weight="800">Static</text>
      <rect y="222" width="332" height="160" rx="14" fill="rgba(28,76,123,.28)" stroke="#355f91"/>
      <text x="16" y="248" fill="#b9e8ff" font-family="Outfit, Arial, sans-serif" font-size="13" font-weight="800">DATOS GENERALES</text>
      <text x="16" y="292" fill="white" font-family="Outfit, Arial, sans-serif" font-size="16" font-weight="800">Generación I</text>
      <text x="176" y="292" fill="white" font-family="Outfit, Arial, sans-serif" font-size="16" font-weight="800">Forest</text>
      <text x="16" y="346" fill="white" font-family="Outfit, Arial, sans-serif" font-size="16" font-weight="800">190/255</text>
      <text x="176" y="346" fill="white" font-family="Outfit, Arial, sans-serif" font-size="16" font-weight="800">Ground, Fairy</text>
      <rect y="400" width="332" height="168" rx="14" fill="rgba(8,10,26,.45)" stroke="#2a3150"/>
      <text x="16" y="428" fill="#eaf4ff" font-family="Outfit, Arial, sans-serif" font-size="13" font-weight="800">ESTADÍSTICAS BASE</text>
      <g stroke-width="8" stroke-linecap="round">
        <path d="M78 456h206" stroke="#20223a"/><path d="M78 456h45" stroke="#6ee7ff"/>
        <path d="M78 480h206" stroke="#20223a"/><path d="M78 480h70" stroke="#ff5b67"/>
        <path d="M78 504h206" stroke="#20223a"/><path d="M78 504h52" stroke="#ffe188"/>
        <path d="M78 528h206" stroke="#20223a"/><path d="M78 528h126" stroke="#ff5b67"/>
      </g>
    </g>
  </g>
  <defs>
    <radialGradient id="bg" cx="0" cy="0" r="1" gradientUnits="userSpaceOnUse" gradientTransform="translate(510 380) rotate(124) scale(618 486)"><stop stop-color="#102f5f"/><stop offset="1" stop-color="#08091b" stop-opacity="0"/></radialGradient>
    <radialGradient id="ball" cx="0" cy="0" r="1" gradientUnits="userSpaceOnUse" gradientTransform="translate(21 17) rotate(58) scale(62)"><stop stop-color="#ff6385"/><stop offset=".56" stop-color="#96e6ff"/><stop offset="1" stop-color="#334064"/></radialGradient>
    <linearGradient id="panel" x1="0" x2="272" y1="0" y2="500" gradientUnits="userSpaceOnUse"><stop stop-color="#34364d"/><stop offset="1" stop-color="#171629"/></linearGradient>
    <radialGradient id="glow" cx="0" cy="0" r="1" gradientUnits="userSpaceOnUse" gradientTransform="translate(130 395) scale(138)"><stop stop-color="#65c8ff" stop-opacity=".36"/><stop offset=".55" stop-color="#ffe177" stop-opacity=".15"/><stop offset="1" stop-color="#ff4f80" stop-opacity=".12"/></radialGradient>
  </defs>
</svg>
